<svg 
    xmlns="http://www.w3.org/2000/svg" 
    viewBox="0 0 512 512"
    width="32"
    height="32"
    aria-hidden="true"
    role="img"
>
    <!-- Outer gear shape -->
    <path
        fill="#1E90FF"
        d="M480,280h-24.6c-3.3,14.8-8.3,29.1-14.8,42.7L455,343.4c7.6,13.2,3.1,30-9.9,37.6l-24.1,13.9
           c-13,7.5-29.7,3.3-37.3-9.9l-14.4-24.9c-13.6,6.5-27.9,11.5-42.7,14.8V480c0,15.5-12.5,28-28,28h-28c-15.5,0-28-12.5-28-28v-24.6
           c-14.8-3.3-29.1-8.3-42.7-14.8l-14.4,24.9c-7.6,13.2-24.3,17.5-37.3,9.9l-24.1-13.9c-13-7.6-17.5-24.4-9.9-37.6l14.4-24.9
           c-6.5-13.6-11.5-27.9-14.8-42.7H32c-15.5,0-28-12.5-28-28v-28c0-15.5,12.5-28,28-28h24.6c3.3-14.8,8.3-29.1,14.8-42.7L57,168.6
           c-7.6-13.2-3.1-30,9.9-37.6l24.1-13.9c13-7.5,29.7-3.3,37.3,9.9l14.4,24.9c13.6-6.5,27.9-11.5,42.7-14.8V32
           c0-15.5,12.5-28,28-28h28c15.5,0,28,12.5,28,28v24.6c14.8,3.3,29.1,8.3,42.7,14.8l14.4-24.9c7.6-13.2,24.3-17.5,37.3-9.9l24.1,13.9
           c13,7.6,17.5,24.4,9.9,37.6l-14.4,24.9c6.5,13.6,11.5,27.9,14.8,42.7H480c15.5,0,28,12.5,28,28v28
           C508,267.5,495.5,280,480,280z"
    />
    <!-- Inner circle -->
    <circle fill="#E3F2FD" cx="256" cy="256" r="64"/>
</svg>